<?xml version="1.0" encoding="utf-8"?>
<!-- Generator: Adobe Illustrator 17.1.0, SVG Export Plug-In . SVG Version: 6.00 Build 0)  -->
<!DOCTYPE svg PUBLIC "-//W3C//DTD SVG 1.1//EN" "http://www.w3.org/Graphics/SVG/1.1/DTD/svg11.dtd">
<svg version="1.1" id="Layer_1" xmlns="http://www.w3.org/2000/svg" xmlns:xlink="http://www.w3.org/1999/xlink" x="0px" y="0px"
	 viewBox="0 0 100 100" enable-background="new 0 0 100 100" xml:space="preserve">
<g display="none">
	<g display="inline">
		<g>
			<path d="M49.998,66.574c-13.036,0-26.767-7.45-34.595-14.838c-0.5-0.467-0.771-1.126-0.752-1.808
				c0.023-0.682,0.332-1.322,0.855-1.761c5.287-4.432,19.233-14.74,34.492-14.74c13.04,0,26.776,7.45,34.6,14.834
				c0.5,0.467,0.771,1.126,0.752,1.808c-0.023,0.682-0.332,1.322-0.855,1.761C79.207,56.261,65.256,66.574,49.998,66.574z
				 M20.755,50.082c7.193,5.936,18.664,11.709,29.243,11.709c11.989,0,23.334-7.309,29.247-11.877
				c-7.193-5.936-18.664-11.704-29.247-11.704C38.008,38.209,26.668,45.514,20.755,50.082z"/>
		</g>
		<g>
			<circle cx="49.999" cy="49.999" r="10.326"/>
		</g>
	</g>
	<g display="inline">
		<g>
			<path d="M94.742,94.742H76.158c-2.644,0-4.783-2.139-4.783-4.783c0-2.644,2.139-4.783,4.783-4.783h13.802V71.366
				c0-2.644,2.139-4.783,4.783-4.783s4.783,2.139,4.783,4.783v18.594C99.524,92.603,97.385,94.742,94.742,94.742z"/>
		</g>
		<g>
			<path d="M23.828,94.742H5.258c-2.644,0-4.783-2.139-4.783-4.783V71.38c0-2.644,2.139-4.783,4.783-4.783s4.783,2.139,4.783,4.783
				v13.797h13.788c2.644,0,4.783,2.139,4.783,4.783C28.611,92.603,26.472,94.742,23.828,94.742z"/>
		</g>
		<g>
			<path d="M5.258,33.417c-2.644,0-4.783-2.139-4.783-4.783V10.041c0-2.644,2.139-4.783,4.783-4.783h18.58
				c2.644,0,4.783,2.139,4.783,4.783s-2.139,4.783-4.783,4.783H10.041v13.811C10.041,31.278,7.902,33.417,5.258,33.417z"/>
		</g>
		<g>
			<path d="M94.742,33.366c-2.644,0-4.783-2.139-4.783-4.783v-13.76H76.144c-2.644,0-4.783-2.139-4.783-4.783
				s2.139-4.783,4.783-4.783h18.598c2.644,0,4.783,2.139,4.783,4.783v18.542C99.524,31.227,97.385,33.366,94.742,33.366z"/>
		</g>
	</g>
</g>
<path d="M91.191,41.46H58.542V8.808c0-4.719-3.823-8.542-8.542-8.542s-8.542,3.823-8.542,8.542V41.46H8.809
	c-4.719,0-8.542,3.823-8.542,8.542s3.823,8.542,8.542,8.542h32.649v32.649c0,4.719,3.823,8.542,8.542,8.542s8.542-3.823,8.542-8.542
	V58.543h32.649c4.719,0,8.542-3.823,8.542-8.542S95.909,41.46,91.191,41.46z"/>
</svg>
