<?xml version="1.0" encoding="utf-8"?>
<!-- Generator: Adobe Illustrator 17.1.0, SVG Export Plug-In . SVG Version: 6.00 Build 0)  -->
<!DOCTYPE svg PUBLIC "-//W3C//DTD SVG 1.1//EN" "http://www.w3.org/Graphics/SVG/1.1/DTD/svg11.dtd">
<svg version="1.1" id="Layer_1" xmlns="http://www.w3.org/2000/svg" xmlns:xlink="http://www.w3.org/1999/xlink" x="0px" y="0px"
	 viewBox="0 0 150 150" enable-background="new 0 0 150 150" xml:space="preserve">
<g>
	<path fill="#FFFFFF" d="M24.691,35.712v106.764c0,4.104,3.327,7.431,7.431,7.431h85.882c4.104,0,7.431-3.327,7.431-7.431V35.712
		c0-4.104-3.327-7.431-7.431-7.431H32.122C28.018,28.281,24.691,31.608,24.691,35.712z M43.428,132.734H41.73
		c-4.104,0-7.431-3.327-7.431-7.431V53.867c0-4.104,3.327-7.431,7.431-7.431h1.698c4.104,0,7.431,3.327,7.431,7.431v71.437
		C50.858,129.407,47.532,132.734,43.428,132.734z M74.943,132.734h-1.704c-4.104,0-7.431-3.327-7.431-7.431V53.867
		c0-4.104,3.327-7.431,7.431-7.431h1.704c4.104,0,7.431,3.327,7.431,7.431v71.437C82.373,129.407,79.046,132.734,74.943,132.734z
		 M106.446,132.734h-1.704c-4.104,0-7.431-3.327-7.431-7.431V53.867c0-4.104,3.327-7.431,7.431-7.431h1.704
		c4.104,0,7.431,3.327,7.431,7.431v71.437C113.876,129.407,110.55,132.734,106.446,132.734z"/>
	<path fill="#FFFFFF" d="M125.292,14.975c0-3.965-3.212-7.181-7.177-7.186L92.911,7.756l-0.05-3.89
		c-9.736-5.174-28.206-4.857-35.642-0.078v4.164H31.752c-3.969,0-7.186,3.217-7.186,7.186v3.954c0,1.62,1.313,2.932,2.932,2.932
		h94.861c1.62,0,2.932-1.313,2.932-2.932V14.975z"/>
</g>
</svg>
