<?xml version="1.0" encoding="utf-8"?>
<!-- Generator: Adobe Illustrator 17.1.0, SVG Export Plug-In . SVG Version: 6.00 Build 0)  -->
<!DOCTYPE svg PUBLIC "-//W3C//DTD SVG 1.1//EN" "http://www.w3.org/Graphics/SVG/1.1/DTD/svg11.dtd">
<svg version="1.1" id="Layer_1" xmlns="http://www.w3.org/2000/svg" xmlns:xlink="http://www.w3.org/1999/xlink" x="0px" y="0px"
	 viewBox="0 0 150 150" enable-background="new 0 0 150 150" xml:space="preserve">
<g>
	<g>
		<path fill="#FFFFFF" d="M130.038,149.582H8.879c-4.672,0-8.46-3.788-8.46-8.46V19.964c0-4.672,3.788-8.46,8.46-8.46h68.554
			c2.309,0,4.181,1.872,4.181,4.181v9.668c0,2.309-1.872,4.181-4.181,4.181H26.909c-4.672,0-8.46,3.788-8.46,8.46v85.099
			c0,4.672,3.788,8.46,8.46,8.46h85.099c4.672,0,8.46-3.788,8.46-8.46V72.569c0-2.309,1.872-4.181,4.181-4.181h9.668
			c2.309,0,4.181,1.872,4.181,4.181v68.554C138.498,145.795,134.71,149.582,130.038,149.582z"/>
	</g>
	<g>
		<path fill="#FFFFFF" d="M107.15,18.576c-0.516-0.516-1.522-0.349-2.245,0.374L44.064,79.792v26.144h26.144l60.841-60.843
			c0.723-0.722,0.891-1.727,0.374-2.243L107.15,18.576z"/>
		<path fill="#FFFFFF" d="M146.04,13.003l-9.044-9.044c-4.722-4.722-12.377-4.722-17.098,0l-8.025,8.025
			c-0.516,0.516-0.516,1.353,0,1.869l24.275,24.275c0.516,0.515,1.353,0.515,1.869,0l8.023-8.025
			C150.761,25.382,150.761,17.727,146.04,13.003z"/>
	</g>
</g>
</svg>
