<?xml version="1.0" encoding="utf-8"?>
<!-- Generator: Adobe Illustrator 17.1.0, SVG Export Plug-In . SVG Version: 6.00 Build 0)  -->
<!DOCTYPE svg PUBLIC "-//W3C//DTD SVG 1.1//EN" "http://www.w3.org/Graphics/SVG/1.1/DTD/svg11.dtd">
<svg version="1.1" id="Layer_1" xmlns="http://www.w3.org/2000/svg" xmlns:xlink="http://www.w3.org/1999/xlink" x="0px" y="0px"
	 viewBox="0 0 150 150" enable-background="new 0 0 150 150" xml:space="preserve">
<g>
	<circle fill="#6DC6D9" cx="75" cy="75" r="63.603"/>
	<g>
		<path fill="#FFFFFF" d="M94.267,71.023c-7.078-2.516-7.131-5.044-7.131-5.044c-13.925,27.776-24.499,0.077-24.499,0.077
			c-0.964,3.748-15.297,8.151-15.297,8.151c-4.181,1.63-5.956,4.069-5.956,4.069c-6.194,9.287-6.917,29.978-6.917,29.978
			c0.082,4.717,2.091,5.211,2.091,5.211c14.247,6.431,36.583,7.573,36.583,7.573c22.941,0.488,39.638-6.598,39.638-6.598
			c2.426-1.547,2.494-2.773,2.494-2.773c1.694-14.819-5.552-31.511-5.552-31.511C107.543,75.258,94.267,71.023,94.267,71.023z"/>
		<path fill="#FFFFFF" d="M64.545,21.003c-1.384,2.9-5.24,4.719-6.48,8.618c0,0-1.418,3.421,0.463,13.484
			c-2.672-1.277-0.851,5.34-0.851,5.34c0.271,1.771,1.005,2.542,1.454,2.862c1.064,8.927,8.659,18.188,15.547,18.188
			c7.917,0,15.445-9.736,16.619-18.188c0.444-0.321,1.175-1.098,1.443-2.862c0,0,1.695-6.123-0.545-5.462
			c0.783-2.368,3.371-11.565-1.649-17.277c0,0-2.634-2.632-7.254-4.702C73.073,16.425,64.545,21.003,64.545,21.003z"/>
	</g>
	<g>
		<path fill="#6DC6D9" d="M75,149.82c-41.256,0-74.82-33.564-74.82-74.82S33.744,0.18,75,0.18c41.256,0,74.82,33.564,74.82,74.82
			S116.256,149.82,75,149.82z M75,2.673C35.118,2.673,2.672,35.119,2.672,75S35.118,147.327,75,147.327S147.328,114.881,147.328,75
			S114.881,2.673,75,2.673z"/>
	</g>
</g>
</svg>
