<?xml version="1.0" encoding="utf-8"?>
<!-- Generator: Adobe Illustrator 17.1.0, SVG Export Plug-In . SVG Version: 6.00 Build 0)  -->
<!DOCTYPE svg PUBLIC "-//W3C//DTD SVG 1.1//EN" "http://www.w3.org/Graphics/SVG/1.1/DTD/svg11.dtd">
<svg version="1.1" id="Layer_1" xmlns="http://www.w3.org/2000/svg" xmlns:xlink="http://www.w3.org/1999/xlink" x="0px" y="0px"
	 viewBox="0 0 150 150" enable-background="new 0 0 150 150" xml:space="preserve">
<g>
	<path fill="#FFFFFF" d="M122.387,46.248L79.232,3.093c-2.337-2.337-6.127-2.337-8.464,0L27.613,46.248
		c-1.743,1.743-0.509,4.724,1.957,4.724H53.6c2.01,0,3.639,1.629,3.639,3.639v49.799c0,4.265,3.457,7.722,7.722,7.722h20.078
		c4.265,0,7.722-3.457,7.722-7.722V54.611c0-2.01,1.629-3.639,3.639-3.639h24.03C122.896,50.972,124.13,47.991,122.387,46.248z"/>
	<path fill="#FFFFFF" d="M143.208,102.748h-38.264c-0.805,0-1.458,0.653-1.458,1.458v0.202c0,10.188-8.259,18.447-18.447,18.447
		H64.962c-10.188,0-18.447-8.259-18.447-18.447v-0.202c0-0.805-0.653-1.458-1.458-1.458H6.792c-3.511,0-6.357,2.846-6.357,6.357
		v33.198c0,3.511,2.846,6.357,6.357,6.357h136.415c3.511,0,6.357-2.846,6.357-6.357v-33.198
		C149.564,105.594,146.719,102.748,143.208,102.748z M116.022,144.303c-3.146,0-5.697-2.55-5.697-5.697
		c0-3.147,2.551-5.697,5.697-5.697c3.147,0,5.697,2.55,5.697,5.697C121.719,141.753,119.169,144.303,116.022,144.303z
		 M133.784,144.303c-3.146,0-5.697-2.55-5.697-5.697c0-3.147,2.551-5.697,5.697-5.697c3.147,0,5.697,2.55,5.697,5.697
		C139.481,141.753,136.931,144.303,133.784,144.303z"/>
</g>
</svg>
