<?xml version="1.0" encoding="utf-8"?>
<!-- Generator: Adobe Illustrator 17.1.0, SVG Export Plug-In . SVG Version: 6.00 Build 0)  -->
<!DOCTYPE svg PUBLIC "-//W3C//DTD SVG 1.1//EN" "http://www.w3.org/Graphics/SVG/1.1/DTD/svg11.dtd">
<svg version="1.1" id="Layer_1" xmlns="http://www.w3.org/2000/svg" xmlns:xlink="http://www.w3.org/1999/xlink" x="0px" y="0px"
	 viewBox="0 0 150 150" enable-background="new 0 0 150 150" xml:space="preserve">
<path fill="#FFFFFF" d="M75,0.514c-41.137,0-74.488,33.346-74.488,74.483c0,41.142,33.351,74.488,74.488,74.488
	c41.137,0,74.488-33.346,74.488-74.488C149.488,33.86,116.137,0.514,75,0.514z M102.997,30.076l5.327-3.566
	c0,0-2.24-5.738-1.864-8.553c1.299-0.624,6.548,2.126,10.985,6.793c-2.993,11.107-9.99,9.781-9.99,9.781
	S102.327,34.414,102.997,30.076z M58.105,95.657c-0.34,1.667-2.345,5.672-3.67,8.334c-1.33,2.665-1.997,3.67-3.672,5
	c-1.663,1.352-2.665,3.677-2.665,3.677l-0.325,5.663c0,0,0.651,4.672,1.646,6.349c0.997,1.656-3.57,11.585-3.57,11.585
	c-2.891-0.573-4.505-3.932-5.512-6.585c-1-2.68-2.33-4.097-1.993-7.092c0.33-2.995-2.592-4.58-3.582-6.25
	c-0.995-1.682-2.337-4.004-2.337-5.675c0-1.672-3.665-4.007-3.665-4.007s-6.67-3-7.665-4.325c-1.005-1.335-2.012-7.017-2.342-9.344
	c-0.33-2.325,1-8.322,1-8.322s2.689-2.022,0.995-3.67c-1.665-1.668-1.995-6.017-1.995-6.017l-3.005-3.325
	c0,0-2.332-3.335-2.66-5.007c-0.335-1.658,0-2.665,0.328-4.337c0.333-1.672-0.663-4.668-0.663-6.33
	C25.207,25.429,46.09,18.303,46.09,18.303l1.682,6.987c0,0-3.667,1.005-5.665,0.345c-2.005-0.668-3.012-0.668-3.012-0.668
	l-2.663,3.662c0,0-1.01,2.342-1.345,3.675c-0.328,1.335,0.663,3.322,0.663,3.322s4.668,0.338,4.668-0.995
	c0-1.332-0.655-1.995-0.655-1.995l-0.668-2.338c0,0,3.012-1.67,10.992-1.01c8.017,0.677,5.022,6.337,8.354,7.684
	c3.342,1.333-2.682,5.995-4.007,8.66c-1.33,2.665-3.335-3.337-3.335-3.337s2.005-2.31-1.335-3c-3.335-0.655-5.544,6.002-3.852,5.68
	c1.66-0.33,3.519,1.796,3.187,3.456c-0.34,1.672-0.34,1.541-2.007,5.199c-1.665,3.674-5.286,6.388-5.286,6.388
	s-1.704-1.041-0.714,0.959c1.015,2-0.33,6.667-0.33,8.007c0,1.325-4.002-2.34-4.665-5.682c-0.675-3.32-4.582-0.429-5.915-0.083
	c-1.337,0.335-3.764-0.583-4.415-2.243c-0.675-1.667-6.687,3.33-8.356,4.328c-1.665,1.005-0.988,3.68,1.67,2.34
	c2.663-1.335,4.995-0.333,4.337,2.347c-0.665,2.65-3.33,0.998-2.997,2.65c0.325,1.667,2.997,3.34,3.655,5.682
	c0.675,2.32,7.019,0.333,9.009-0.67c2.002-1.012,7.677-2.005,8.335,0.67c0.686,2.67,7.007,3.652,9.342,4.318
	c2.342,0.67,7.002,1.003,9.677,3.675C63.102,88.985,58.442,93.989,58.105,95.657z M73.099,17.625
	c-0.335,3.337-5.655,7.665-4.99,9.009c0.668,1.345,0,7.048-4.677,2.041c-4.67-5.003-9.344-6.704-8.998-10.051
	c0.073-0.668,4.83-1.711,4.901-2.879c7.077-6.573,18.368-5.221,19.23-3.667C76.551,15.392,73.437,14.288,73.099,17.625z
	 M133.452,77.104c0,0,2.573,3.781,6.238,3.541c-2.408,27.887-25.681,45.804-25.681,45.804c-3.554-3.566-1.777-6.662-1.777-6.662
	l0.998-5.347l0.565-8.998c0,0,0-9.33-8.898-4.898c-9.556,2.439-5.573,2.439-15.235,3.112c-9.665,0.67-8.065-19.718-8.065-19.718
	c0-30.516,23.402-7.483,23.402-7.483c13.354,8.881,15.121-7.369,15.121-7.369l9.783-3.537l0.891-4.456l-1.422-6.216l-14.206-5.864
	c0,0-1.371,4.616,2.279,10.296c0,0-1.216,6.444-4.216,4.781l-8.231-4.138c0,0-2.772-1.197-7.22,1.478
	c-4.452,2.66-11.99-0.126-11.99-0.126s0.619-4.476,5.289-6.796l3.825-2.529c0,0-1-4.566-0.124-8.119
	c0.881-3.554,2.444-0.442,6.003-3.112c3.546-2.658,6.002,5.221,11.33,4.337c5.335-0.895,2.672-1.782,6.242-3.558
	c3.556-1.779,6.216,3.558,6.216,3.558l7.104,0.884c0,0-1.109-8.036-0.624-5.956c4.507,7.74,11.099,28.38,8.658,32.065
	c-1.463-0.658-2.684-1.208-2.684-1.208h-8.898L133.452,77.104z"/>
</svg>
