<?xml version="1.0" encoding="utf-8"?>
<!-- Generator: Adobe Illustrator 17.1.0, SVG Export Plug-In . SVG Version: 6.00 Build 0)  -->
<!DOCTYPE svg PUBLIC "-//W3C//DTD SVG 1.1//EN" "http://www.w3.org/Graphics/SVG/1.1/DTD/svg11.dtd">
<svg version="1.1" id="Layer_1" xmlns="http://www.w3.org/2000/svg" xmlns:xlink="http://www.w3.org/1999/xlink" x="0px" y="0px"
	 viewBox="0 0 150 150" enable-background="new 0 0 150 150" xml:space="preserve">
<g>
	<g>
		<path fill="#A0813C" d="M75.01,0.659c-41.067,0-74.349,33.277-74.349,74.348c0,41.055,33.282,74.335,74.349,74.335
			c41.043,0,74.329-33.28,74.329-74.335C149.339,33.936,116.052,0.659,75.01,0.659z M75.01,137.224
			c-34.385,0-62.234-27.854-62.234-62.218c0-34.375,27.85-62.229,62.234-62.229c34.356,0,62.215,27.854,62.215,62.229
			C137.224,109.371,109.366,137.224,75.01,137.224z"/>
		<polygon fill="#A0813C" points="85.378,56.759 64.49,56.759 64.49,56.79 56.71,56.79 56.71,68.943 64.49,68.943 64.49,112.33 
			56.241,112.33 56.241,123.936 64.49,123.936 64.49,124.017 85.378,124.017 85.378,123.936 92.216,123.936 92.216,112.33 
			85.378,112.33 		"/>
		<path fill="#A0813C" d="M74.796,48.506c7.013,0,11.277-4.671,11.277-10.444c-0.147-5.908-4.264-10.437-11.002-10.437
			c-6.729,0-11.135,4.529-11.135,10.437C63.936,43.835,68.191,48.506,74.796,48.506z"/>
	</g>
</g>
</svg>
