<?xml version="1.0" encoding="utf-8"?>
<!-- Generator: Adobe Illustrator 17.1.0, SVG Export Plug-In . SVG Version: 6.00 Build 0)  -->
<!DOCTYPE svg PUBLIC "-//W3C//DTD SVG 1.1//EN" "http://www.w3.org/Graphics/SVG/1.1/DTD/svg11.dtd">
<svg version="1.1" id="Layer_1" xmlns="http://www.w3.org/2000/svg" xmlns:xlink="http://www.w3.org/1999/xlink" x="0px" y="0px"
	 viewBox="0 0 150 150" enable-background="new 0 0 150 150" xml:space="preserve">
<path fill="#E30E13" d="M1396.879,580.091l-6.391-11.203c-0.056-0.07-0.141-0.113-0.232-0.113c-0.091,0-0.177,0.043-0.235,0.113
	l-6.391,11.203c-0.041,0.055-0.065,0.12-0.065,0.184l0.029,0.13c0.049,0.103,0.154,0.168,0.267,0.168h12.784
	c0.114,0,0.219-0.065,0.268-0.168C1396.966,580.303,1396.95,580.182,1396.879,580.091z M1389.61,572.944h1.3v4.186h-1.3V572.944z
	 M1390.252,579.461c-0.42,0-0.677-0.282-0.685-0.65c0-0.359,0.265-0.651,0.702-0.651c0.41,0,0.675,0.292,0.675,0.651
	C1390.944,579.178,1390.67,579.461,1390.252,579.461z"/>
<g>
	<g>
		<path fill="#D95B15" d="M93.13,145.803c0,1.117-0.906,2.023-2.023,2.023H43.244c-23.519,0-42.656-19.049-42.656-42.461v-60.73
			c0-23.412,19.137-42.461,42.656-42.461h47.862c1.117,0,2.023,0.906,2.023,2.023v15.267c0,1.117-0.906,2.023-2.023,2.023H43.244
			c-12.869,0-23.343,10.386-23.343,23.148v60.73c0,12.762,10.474,23.148,23.343,23.148h47.862c1.117,0,2.023,0.906,2.023,2.023
			V145.803z"/>
	</g>
	<path fill="#D95B15" d="M147.972,72.249L96.643,36.636c-1.412-0.98-3.343,0.031-3.343,1.749v13.451
		c0,1.348-1.093,2.442-2.442,2.442H37.671c-1.849,0-3.348,1.499-3.348,3.348v34.747c0,1.849,1.499,3.348,3.348,3.348h53.187
		c1.348,0,2.442,1.093,2.442,2.442v13.451c0,1.719,1.931,2.729,3.343,1.749l51.329-35.613
		C149.891,76.419,149.891,73.581,147.972,72.249z"/>
</g>
</svg>
