<?xml version="1.0" encoding="utf-8"?>
<!-- Generator: Adobe Illustrator 17.1.0, SVG Export Plug-In . SVG Version: 6.00 Build 0)  -->
<!DOCTYPE svg PUBLIC "-//W3C//DTD SVG 1.1//EN" "http://www.w3.org/Graphics/SVG/1.1/DTD/svg11.dtd">
<svg version="1.1" id="Layer_1" xmlns="http://www.w3.org/2000/svg" xmlns:xlink="http://www.w3.org/1999/xlink" x="0px" y="0px"
	 viewBox="0 0 150 150" enable-background="new 0 0 150 150" xml:space="preserve">
<path fill="#E30E13" d="M1396.879,580.091l-6.391-11.203c-0.056-0.07-0.141-0.113-0.232-0.113c-0.091,0-0.177,0.043-0.235,0.113
	l-6.391,11.203c-0.041,0.055-0.065,0.12-0.065,0.184l0.029,0.13c0.049,0.103,0.154,0.168,0.267,0.168h12.784
	c0.114,0,0.219-0.065,0.268-0.168C1396.966,580.303,1396.95,580.182,1396.879,580.091z M1389.61,572.944h1.3v4.186h-1.3V572.944z
	 M1390.252,579.461c-0.42,0-0.677-0.282-0.685-0.65c0-0.359,0.265-0.651,0.702-0.651c0.41,0,0.675,0.292,0.675,0.651
	C1390.944,579.178,1390.67,579.461,1390.252,579.461z"/>
<path fill="#E30E13" d="M149.087,135.584L77.608,10.279c-0.623-0.784-1.578-1.263-2.596-1.263c-1.015,0-1.975,0.478-2.63,1.263
	L0.904,135.584c-0.462,0.613-0.722,1.338-0.722,2.062l0.327,1.458c0.553,1.15,1.728,1.879,2.991,1.879h142.989
	c1.275,0,2.449-0.729,2.993-1.879C150.055,137.954,149.877,136.609,149.087,135.584z M67.781,55.654h14.54v46.814h-14.54V55.654z
	 M74.961,128.537c-4.701,0-7.57-3.157-7.666-7.275c0-4.021,2.964-7.283,7.855-7.283c4.584,0,7.553,3.263,7.553,7.283
	C82.704,125.381,79.645,128.537,74.961,128.537z"/>
</svg>
