<?xml version="1.0" encoding="utf-8"?>
<!-- Generator: Adobe Illustrator 17.1.0, SVG Export Plug-In . SVG Version: 6.00 Build 0)  -->
<!DOCTYPE svg PUBLIC "-//W3C//DTD SVG 1.1//EN" "http://www.w3.org/Graphics/SVG/1.1/DTD/svg11.dtd">
<svg version="1.1" id="Layer_1" xmlns="http://www.w3.org/2000/svg" xmlns:xlink="http://www.w3.org/1999/xlink" x="0px" y="0px"
	 viewBox="0 0 150 150" enable-background="new 0 0 150 150" xml:space="preserve">
<g display="none">
	<path id="XMLID_82_" display="inline"   d="M-101.901,33.299h-4.978V28.32c0-2.406-1.952-4.358-4.358-4.358
		c-2.407,0-4.358,1.952-4.358,4.358v4.979h-19.291V28.32c0-2.406-1.952-4.358-4.358-4.358c-2.407,0-4.358,1.952-4.358,4.358v4.979
		h-14.624V4.981c0-2.407-1.951-4.358-4.358-4.358h-18.671c-2.407,0-4.358,1.951-4.358,4.358v28.318h-14.623V28.32
		c0-2.406-1.952-4.358-4.358-4.358c-2.407,0-4.358,1.952-4.358,4.358v4.979h-19.292V28.32c0-2.406-1.951-4.358-4.358-4.358
		c-2.406,0-4.358,1.952-4.358,4.358v4.979h-4.978c-2.407,0-4.358,1.951-4.358,4.358v18.671c0,2.407,1.951,4.358,4.358,4.358h26.203
		l30.122,30.122v7.84h-18.981c-2.407,0-4.358,1.952-4.358,4.358v28.008c0,2.407,1.951,4.358,4.358,4.358h18.981v9.645
		c0,2.407,1.951,4.358,4.358,4.358c2.407,0,4.358-1.951,4.358-4.358V60.687h9.955v84.332c0,2.407,1.952,4.358,4.358,4.358
		c2.407,0,4.358-1.951,4.358-4.358v-9.645h18.982c2.406,0,4.358-1.951,4.358-4.358v-28.008c0-2.406-1.952-4.358-4.358-4.358h-18.982
		v-7.84l30.122-30.122h26.203c2.407,0,4.358-1.952,4.358-4.358V37.656C-97.543,35.25-99.493,33.299-101.901,33.299z M-176.897,9.339
		h9.955v23.96h-9.955V9.339z M-200.238,126.657v-19.292h14.624v19.292H-200.238z M-185.613,78.483l-17.796-17.796h17.796V78.483z
		 M-143.601,107.365v19.292h-14.624v-19.292H-143.601z M-158.226,78.483V60.687h17.796L-158.226,78.483z M-106.259,51.971H-237.58
		v-9.956h131.322V51.971z"/>
</g>
<g>
	<path id="XMLID_129_"   d="M126.571,0.3H23.429C10.676,0.3,0.3,10.676,0.3,23.429v103.141
		c0,12.754,10.376,23.129,23.129,23.129h103.141c12.754,0,23.129-10.376,23.129-23.129V23.429C149.7,10.676,139.324,0.3,126.571,0.3
		z M140.946,126.571c0,7.926-6.449,14.376-14.376,14.376H23.429c-7.926,0-14.376-6.449-14.376-14.376V23.429
		c0-7.926,6.449-14.376,14.376-14.376h103.141c7.926,0,14.376,6.449,14.376,14.376V126.571z"/>
	<g>
		<path id="XMLID_121_"   d="M126.571,23.741H23.429c-2.416,0-4.377,1.96-4.377,4.377v37.506
			c0,2.416,1.961,4.377,4.377,4.377h103.141c2.418,0,4.377-1.961,4.377-4.377V28.118C130.948,25.701,128.988,23.741,126.571,23.741z
			 M27.806,32.494h56.881v28.752H27.806V32.494z M122.194,61.247H93.441V32.494h28.752V61.247z"/>
		<path   d="M114.842,43.757h-3.91v-3.911c0-1.332-1.083-2.415-2.415-2.415h-1.398c-1.331,0-2.414,1.083-2.414,2.415
			v3.911h-3.91c-1.332,0-2.415,1.083-2.415,2.414v1.399c0,1.331,1.083,2.414,2.415,2.414h3.91v3.911
			c0,1.332,1.083,2.415,2.414,2.415h1.398c1.332,0,2.415-1.083,2.415-2.415v-3.911h3.91c1.331,0,2.414-1.083,2.414-2.414v-1.399
			C117.256,44.84,116.173,43.757,114.842,43.757z"/>
		<path   d="M53.986,50.395H39.913c-1.473,0-2.666-1.194-2.666-2.666v-1.716c0-1.473,1.194-2.666,2.666-2.666h14.073
			c1.473,0,2.666,1.194,2.666,2.666v1.716C56.653,49.201,55.459,50.395,53.986,50.395z"/>
	</g>
	<g>
		<path id="XMLID_1_"   d="M23.429,127.187h103.141c2.416,0,4.377-1.96,4.377-4.377V85.304
			c0-2.416-1.961-4.377-4.377-4.377H23.429c-2.418,0-4.377,1.961-4.377,4.377v37.506C19.052,125.227,21.012,127.187,23.429,127.187z
			 M122.194,118.434H65.312V89.681h56.881V118.434z M27.806,89.681h28.752v28.752H27.806V89.681z"/>
		<path   d="M35.158,107.171h3.91v3.911c0,1.332,1.083,2.415,2.415,2.415h1.398c1.331,0,2.414-1.083,2.414-2.415
			v-3.911h3.91c1.332,0,2.415-1.083,2.415-2.414v-1.399c0-1.331-1.083-2.414-2.415-2.414h-3.91v-3.911
			c0-1.332-1.083-2.415-2.414-2.415h-1.398c-1.332,0-2.415,1.083-2.415,2.415v3.911h-3.91c-1.331,0-2.414,1.083-2.414,2.414v1.399
			C32.744,106.088,33.827,107.171,35.158,107.171z"/>
		<path   d="M96.013,100.533h14.073c1.473,0,2.666,1.194,2.666,2.666v1.716c0,1.473-1.194,2.666-2.666,2.666H96.013
			c-1.473,0-2.666-1.194-2.666-2.666v-1.716C93.347,101.727,94.541,100.533,96.013,100.533z"/>
	</g>
</g>
<g display="none">
	<path id="XMLID_131_" display="inline"   d="M351.882-180.091c-14.901,0-26.985,12.056-26.985,26.985v70.056
		c0,10.872-8.845,19.718-19.718,19.718c-10.872,0-19.718-8.845-19.718-19.718v-8.043h4.15c2.006,0,3.634-1.626,3.634-3.633v-11.934
		h0.257c6.278,0,11.418-5.076,11.418-11.417v-42.812c0-2.006-1.628-3.634-3.634-3.634h-4.151v-11.934
		c0-2.007-1.627-3.634-3.634-3.634h-23.351c-2.006,0-3.633,1.627-3.633,3.634v11.934h-4.15c-2.007,0-3.634,1.628-3.634,3.634v42.812
		c0,6.372,5.172,11.417,11.417,11.417h0.258v11.934c0,2.007,1.627,3.633,3.634,3.633h4.15v8.043
		c0,14.88,12.106,26.985,26.986,26.985s26.985-12.105,26.985-26.985v-70.056c0-10.887,8.808-19.718,19.718-19.718
		c10.873,0,19.719,8.846,19.719,19.718v93.408c0,2.007,1.627,3.634,3.634,3.634c2.006,0,3.634-1.627,3.634-3.634v-93.408
		C378.868-167.985,366.763-180.091,351.882-180.091z M273.785-172.823h16.084v8.3h-16.084V-172.823z M266.001-118.078v-39.178
		h31.653v39.178c0,2.262-1.828,4.15-4.151,4.15h-23.351C267.89-113.927,266.001-115.756,266.001-118.078z M277.677-106.66h8.301v8.3
		h-8.301V-106.66z"/>
	<path display="inline"   d="M283.9-140.475l3.086-6.018c0.637-1.241,0.146-2.764-1.095-3.4l-0.696-0.357
		c-1.241-0.637-2.763-0.146-3.4,1.095l-7.004,13.656c-0.385,0.751,0.159,1.644,1.003,1.646l4.074,0.009
		c0.189,0,0.31,0.2,0.224,0.368l-2.883,5.621c-0.637,1.241-0.146,2.764,1.095,3.4l0.696,0.357c1.241,0.637,2.763,0.146,3.4-1.095
		l6.724-13.111c0.377-0.735-0.136-1.613-0.961-1.645l-4.049-0.159C283.93-140.114,283.815-140.31,283.9-140.475z"/>
</g>
</svg>
