<?xml version="1.0" encoding="utf-8"?>
<!-- Generator: Adobe Illustrator 17.1.0, SVG Export Plug-In . SVG Version: 6.00 Build 0)  -->
<!DOCTYPE svg PUBLIC "-//W3C//DTD SVG 1.1//EN" "http://www.w3.org/Graphics/SVG/1.1/DTD/svg11.dtd">
<svg version="1.1" id="Layer_1" xmlns="http://www.w3.org/2000/svg" xmlns:xlink="http://www.w3.org/1999/xlink" x="0px" y="0px"
	 viewBox="0 0 150 43.25" enable-background="new 0 0 150 43.25" xml:space="preserve">
<g id="XMLID_67_">
	<path fill="#91814C" d="M78.736,28.291c-0.41,0-0.795-0.215-1.007-0.575c-0.238-0.402-0.214-0.907,0.061-1.285l6.501-8.939
		l-75.403,5.8c-0.646,0.053-1.208-0.433-1.258-1.078c-0.05-0.645,0.433-1.208,1.078-1.258l77.932-5.995
		c0.451-0.035,0.889,0.198,1.112,0.597c0.223,0.399,0.194,0.891-0.075,1.26l-6.399,8.798l60.256-7.652
		c0.642-0.084,1.227,0.373,1.309,1.014c0.081,0.642-0.373,1.228-1.014,1.309l-62.945,7.993
		C78.835,28.288,78.785,28.291,78.736,28.291z"/>
</g>
</svg>
