<?xml version="1.0" encoding="utf-8"?>
<!-- Generator: Adobe Illustrator 17.1.0, SVG Export Plug-In . SVG Version: 6.00 Build 0)  -->
<!DOCTYPE svg PUBLIC "-//W3C//DTD SVG 1.1//EN" "http://www.w3.org/Graphics/SVG/1.1/DTD/svg11.dtd">
<svg version="1.1" id="Layer_1" xmlns="http://www.w3.org/2000/svg" xmlns:xlink="http://www.w3.org/1999/xlink" x="0px" y="0px"
	 viewBox="0 0 100 100" enable-background="new 0 0 100 100" xml:space="preserve">
<path d="M99.446,60.569L87.495,14.165c-0.22-0.853-0.989-1.449-1.87-1.449H56.068h-4.137V8.579c0-1.066-0.864-1.931-1.931-1.931
	c-1.066,0-1.931,0.865-1.931,1.931v4.137H14.375c-0.881,0-1.65,0.596-1.87,1.449L0.554,60.569c-0.04,0.157-0.061,0.319-0.061,0.482
	c0,7.655,6.228,13.882,13.882,13.882c7.654,0,13.882-6.227,13.882-13.882c0-0.163-0.021-0.324-0.061-0.482L17.039,17.247
	l31.031,7.207v56.649H28.303c-2.889,0-5.24,2.351-5.24,5.24v1.767c0,2.889,2.351,5.24,5.24,5.24h43.393c2.89,0,5.24-2.351,5.24-5.24
	v-1.767c0-2.889-2.351-5.24-5.24-5.24H51.931V24.454l31.031-7.207L71.804,60.569c-0.04,0.157-0.061,0.319-0.061,0.482
	c0,7.655,6.228,13.882,13.882,13.882c7.654,0,13.882-6.227,13.882-13.882C99.507,60.888,99.486,60.727,99.446,60.569z M4.357,61.284
	v0.004C4.357,61.287,4.357,61.286,4.357,61.284L4.357,61.284z M14.375,71.071c-4.758,0-8.751-3.333-9.769-7.786h19.537
	C23.126,67.738,19.133,71.071,14.375,71.071z M23.878,59.285H4.872l9.503-36.898L23.878,59.285z M31.221,16.577H48.07v3.913
	L31.221,16.577z M71.697,84.965c0.76,0,1.379,0.618,1.379,1.379v1.767c0,0.761-0.619,1.379-1.379,1.379H28.303
	c-0.76,0-1.379-0.618-1.379-1.379v-1.767c0-0.761,0.619-1.379,1.379-1.379H71.697z M51.931,20.49v-3.913h4.137h12.711L51.931,20.49z
	 M85.625,22.387l9.503,36.898H76.122L85.625,22.387z M85.625,71.071c-4.758,0-8.75-3.333-9.769-7.786h19.537
	C94.375,67.738,90.382,71.071,85.625,71.071z"/>
</svg>
