<?xml version="1.0" encoding="utf-8"?>
<!-- Generator: Adobe Illustrator 17.1.0, SVG Export Plug-In . SVG Version: 6.00 Build 0)  -->
<!DOCTYPE svg PUBLIC "-//W3C//DTD SVG 1.1//EN" "http://www.w3.org/Graphics/SVG/1.1/DTD/svg11.dtd">
<svg version="1.1" id="Layer_1" xmlns="http://www.w3.org/2000/svg" xmlns:xlink="http://www.w3.org/1999/xlink" x="0px" y="0px"
	 viewBox="0 0 100 100" enable-background="new 0 0 100 100" xml:space="preserve">
<g>
	<path d="M21.674,42.412H10.757c-1.225,0-2.218,0.993-2.218,2.218v37.541c0,1.226,0.993,2.218,2.218,2.218h10.916
		c1.226,0,2.218-0.993,2.218-2.218V44.631C23.892,43.405,22.899,42.412,21.674,42.412L21.674,42.412z M19.456,79.954h-6.48V46.85
		h6.48V79.954z M19.456,79.954"/>
	<path d="M55.51,42.412H44.593c-1.225,0-2.219,0.993-2.219,2.218v37.541c0,1.226,0.994,2.218,2.219,2.218H55.51
		c1.224,0,2.218-0.993,2.218-2.218V44.631C57.728,43.405,56.734,42.412,55.51,42.412L55.51,42.412z M53.29,79.954h-6.478V46.85
		h6.478V79.954z M53.29,79.954"/>
	<path d="M89.344,42.412H78.428c-1.226,0-2.218,0.993-2.218,2.218v37.541c0,1.226,0.993,2.218,2.218,2.218h10.916
		c1.226,0,2.22-0.993,2.22-2.218V44.631C91.564,43.405,90.57,42.412,89.344,42.412L89.344,42.412z M87.126,79.954h-6.479V46.85
		h6.479V79.954z M87.126,79.954"/>
	<path d="M50.051,13.392c-4.994,0.012-9.041,4.057-9.053,9.051c0,5,4.053,9.053,9.053,9.053c5,0,9.053-4.053,9.053-9.053
		S55.05,13.392,50.051,13.392L50.051,13.392z M50.073,27.059c-2.549,0-4.614-2.067-4.614-4.615c0-2.54,2.052-4.603,4.592-4.615
		c2.545,0.012,4.603,2.072,4.615,4.615h0.021C54.687,24.992,52.622,27.059,50.073,27.059L50.073,27.059z M50.073,27.059"/>
	<path d="M90.72,88.095H9.382c-1.226,0-2.218,0.994-2.218,2.219c0,1.226,0.993,2.218,2.218,2.218H90.72
		c1.225,0,2.218-0.993,2.218-2.218C92.938,89.089,91.946,88.095,90.72,88.095L90.72,88.095z M90.72,88.095"/>
	<path d="M95.912,95.484H4.189c-1.224,0-2.218,0.994-2.218,2.219c0,1.226,0.994,2.218,2.218,2.218h91.723
		c1.226,0,2.218-0.993,2.218-2.218C98.13,96.478,97.138,95.484,95.912,95.484L95.912,95.484z M95.912,95.484"/>
	<path d="M50.041,4.916l43.583,25.985v3.584H6.03v-3.573L50.041,4.916 M50.051,0.079L1.87,28.538v10.107h95.914V28.538L50.051,0.079
		L50.051,0.079z"/>
</g>
</svg>
