<?xml version="1.0" encoding="utf-8"?>
<!-- Generator: Adobe Illustrator 17.1.0, SVG Export Plug-In . SVG Version: 6.00 Build 0)  -->
<!DOCTYPE svg PUBLIC "-//W3C//DTD SVG 1.1//EN" "http://www.w3.org/Graphics/SVG/1.1/DTD/svg11.dtd">
<svg version="1.1" id="Layer_1" xmlns="http://www.w3.org/2000/svg" xmlns:xlink="http://www.w3.org/1999/xlink" x="0px" y="0px"
	 viewBox="0 0 150 150" enable-background="new 0 0 150 150" xml:space="preserve">
<g>
	<path id="XMLID_82_" fill="#EDCA3D" d="M-101.901,33.299h-4.978V28.32c0-2.406-1.952-4.358-4.358-4.358
		c-2.407,0-4.358,1.952-4.358,4.358v4.979h-19.291V28.32c0-2.406-1.952-4.358-4.358-4.358c-2.407,0-4.358,1.952-4.358,4.358v4.979
		h-14.624V4.981c0-2.407-1.951-4.358-4.358-4.358h-18.671c-2.407,0-4.358,1.951-4.358,4.358v28.318h-14.623V28.32
		c0-2.406-1.952-4.358-4.358-4.358c-2.407,0-4.358,1.952-4.358,4.358v4.979h-19.292V28.32c0-2.406-1.951-4.358-4.358-4.358
		c-2.406,0-4.358,1.952-4.358,4.358v4.979h-4.978c-2.407,0-4.358,1.951-4.358,4.358v18.671c0,2.407,1.951,4.358,4.358,4.358h26.203
		l30.122,30.122v7.84h-18.981c-2.407,0-4.358,1.952-4.358,4.358v28.008c0,2.407,1.951,4.358,4.358,4.358h18.981v9.645
		c0,2.407,1.951,4.358,4.358,4.358c2.407,0,4.358-1.951,4.358-4.358V60.687h9.955v84.332c0,2.407,1.952,4.358,4.358,4.358
		c2.407,0,4.358-1.951,4.358-4.358v-9.645h18.982c2.406,0,4.358-1.951,4.358-4.358v-28.008c0-2.406-1.952-4.358-4.358-4.358h-18.982
		v-7.84l30.122-30.122h26.203c2.407,0,4.358-1.952,4.358-4.358V37.656C-97.543,35.25-99.493,33.299-101.901,33.299z M-176.897,9.339
		h9.955v23.96h-9.955V9.339z M-200.238,126.657v-19.292h14.624v19.292H-200.238z M-185.613,78.483l-17.796-17.796h17.796V78.483z
		 M-143.601,107.365v19.292h-14.624v-19.292H-143.601z M-158.226,78.483V60.687h17.796L-158.226,78.483z M-106.259,51.971H-237.58
		v-9.956h131.322V51.971z"/>
</g>
<g>
	<path id="XMLID_129_" fill="#EDCA3D" d="M-113.623-168.956h-103.141c-12.754,0-23.129,10.376-23.129,23.13v103.141
		c0,12.754,10.376,23.129,23.129,23.129h103.141c12.754,0,23.129-10.376,23.129-23.129v-103.141
		C-90.494-158.58-100.87-168.956-113.623-168.956z M-99.248-42.685c0,7.926-6.449,14.376-14.376,14.376h-103.141
		c-7.926,0-14.376-6.449-14.376-14.376v-103.141c0-7.926,6.449-14.376,14.376-14.376h103.141c7.926,0,14.376,6.449,14.376,14.376
		V-42.685z"/>
	<g>
		<path id="XMLID_121_" fill="#EDCA3D" d="M-113.623-145.515h-103.141c-2.417,0-4.377,1.96-4.377,4.377v37.506
			c0,2.416,1.961,4.377,4.377,4.377h103.141c2.418,0,4.377-1.961,4.377-4.377v-37.506
			C-109.246-143.555-111.206-145.515-113.623-145.515z M-212.387-136.761h56.881v28.752h-56.881V-136.761z M-118-108.009h-28.752
			v-28.752H-118V-108.009z"/>
		<path fill="#EDCA3D" d="M-125.352-125.499h-3.91v-3.911c0-1.332-1.083-2.415-2.415-2.415h-1.398c-1.331,0-2.414,1.083-2.414,2.415
			v3.911h-3.91c-1.332,0-2.415,1.083-2.415,2.414v1.399c0,1.331,1.083,2.414,2.415,2.414h3.91v3.911
			c0,1.332,1.083,2.415,2.414,2.415h1.398c1.332,0,2.415-1.083,2.415-2.415v-3.911h3.91c1.331,0,2.414-1.083,2.414-2.414v-1.399
			C-122.938-124.416-124.021-125.499-125.352-125.499z"/>
		<path fill="#EDCA3D" d="M-186.207-118.861h-14.073c-1.473,0-2.666-1.194-2.666-2.666v-1.716c0-1.473,1.194-2.666,2.666-2.666
			h14.073c1.473,0,2.666,1.194,2.666,2.666v1.716C-183.541-120.054-184.735-118.861-186.207-118.861z"/>
	</g>
	<g>
		<path id="XMLID_1_" fill="#EDCA3D" d="M-216.764-42.068h103.141c2.416,0,4.377-1.96,4.377-4.377v-37.506
			c0-2.416-1.961-4.377-4.377-4.377h-103.141c-2.418,0-4.377,1.961-4.377,4.377v37.506
			C-221.141-44.029-219.182-42.068-216.764-42.068z M-118-50.822h-56.881v-28.752H-118V-50.822z M-212.388-79.575h28.752v28.752
			h-28.752V-79.575z"/>
		<path fill="#EDCA3D" d="M-205.035-62.085h3.91v3.911c0,1.332,1.083,2.415,2.415,2.415h1.398c1.331,0,2.414-1.083,2.414-2.415
			v-3.911h3.91c1.332,0,2.415-1.083,2.415-2.414v-1.399c0-1.331-1.083-2.414-2.415-2.414h-3.91v-3.911
			c0-1.332-1.083-2.415-2.414-2.415h-1.398c-1.332,0-2.415,1.083-2.415,2.415v3.911h-3.91c-1.331,0-2.414,1.083-2.414,2.414v1.399
			C-207.45-63.168-206.366-62.085-205.035-62.085z"/>
		<path fill="#EDCA3D" d="M-144.18-68.723h14.073c1.473,0,2.666,1.194,2.666,2.666v1.716c0,1.473-1.194,2.666-2.666,2.666h-14.073
			c-1.473,0-2.666-1.194-2.666-2.666v-1.716C-146.847-67.529-145.653-68.723-144.18-68.723z"/>
	</g>
</g>
<g>
	<path id="XMLID_131_" fill="#EDCA3D" d="M114.701,0.578c-17.883,0-32.385,14.469-32.385,32.385v84.075
		c0,13.048-10.616,23.663-23.663,23.663c-13.048,0-23.663-10.615-23.663-23.663v-9.653h4.981c2.407,0,4.361-1.952,4.361-4.361
		V88.702h0.309c7.535,0,13.703-6.091,13.703-13.702V23.621c0-2.407-1.953-4.361-4.361-4.361H49V4.939
		c0-2.409-1.952-4.361-4.361-4.361H16.615c-2.407,0-4.361,1.952-4.361,4.361v14.322H7.274c-2.408,0-4.361,1.953-4.361,4.361V75
		c0,7.647,6.207,13.702,13.702,13.702h0.31v14.322c0,2.409,1.952,4.361,4.361,4.361h4.981v9.653
		c0,17.857,14.529,32.385,32.386,32.385s32.385-14.528,32.385-32.385V32.963c0-13.066,10.571-23.663,23.663-23.663
		c13.049,0,23.665,10.616,23.665,23.663v112.099c0,2.409,1.952,4.361,4.361,4.361c2.408,0,4.361-1.952,4.361-4.361V32.963
		C147.087,15.105,132.559,0.578,114.701,0.578z M20.976,9.299h19.303v9.961H20.976V9.299z M11.635,75V27.982h37.987V75
		c0,2.714-2.194,4.981-4.982,4.981H16.615C13.901,79.981,11.635,77.787,11.635,75z M25.647,88.702h9.963v9.961h-9.963V88.702z"/>
	<path fill="#EDCA3D" d="M33.115,48.121l3.704-7.222c0.764-1.49,0.176-3.317-1.314-4.08L34.67,36.39
		c-1.49-0.764-3.316-0.176-4.08,1.314l-8.405,16.389c-0.462,0.901,0.191,1.973,1.204,1.975l4.889,0.011
		c0.227,0.001,0.373,0.24,0.269,0.442l-3.46,6.746c-0.764,1.49-0.176,3.316,1.314,4.08l0.835,0.428
		c1.49,0.764,3.316,0.176,4.08-1.314l8.07-15.735c0.452-0.882-0.163-1.935-1.154-1.974l-4.859-0.19
		C33.151,48.554,33.013,48.318,33.115,48.121z"/>
</g>
</svg>
