<?xml version="1.0" encoding="utf-8"?>
<!-- Generator: Adobe Illustrator 17.1.0, SVG Export Plug-In . SVG Version: 6.00 Build 0)  -->
<!DOCTYPE svg PUBLIC "-//W3C//DTD SVG 1.1//EN" "http://www.w3.org/Graphics/SVG/1.1/DTD/svg11.dtd">
<svg version="1.1" id="Layer_1" xmlns="http://www.w3.org/2000/svg" xmlns:xlink="http://www.w3.org/1999/xlink" x="0px" y="0px"
	 viewBox="0 0 150 150" enable-background="new 0 0 150 150" xml:space="preserve">
<g>
	<path id="XMLID_82_" fill="#EDCA3D" d="M145.019,33.299h-4.978V28.32c0-2.406-1.952-4.358-4.358-4.358
		c-2.407,0-4.358,1.952-4.358,4.358v4.979h-19.291V28.32c0-2.406-1.952-4.358-4.358-4.358c-2.407,0-4.358,1.952-4.358,4.358v4.979
		H88.694V4.981c0-2.407-1.951-4.358-4.358-4.358H65.664c-2.407,0-4.358,1.951-4.358,4.358v28.318H46.683V28.32
		c0-2.406-1.952-4.358-4.358-4.358c-2.407,0-4.358,1.952-4.358,4.358v4.979H18.675V28.32c0-2.406-1.951-4.358-4.358-4.358
		c-2.406,0-4.358,1.952-4.358,4.358v4.979H4.981c-2.407,0-4.358,1.951-4.358,4.358v18.671c0,2.407,1.951,4.358,4.358,4.358h26.203
		l30.122,30.122v7.84H42.325c-2.407,0-4.358,1.952-4.358,4.358v28.008c0,2.407,1.951,4.358,4.358,4.358h18.981v9.645
		c0,2.407,1.951,4.358,4.358,4.358c2.407,0,4.358-1.951,4.358-4.358V60.687h9.955v84.332c0,2.407,1.952,4.358,4.358,4.358
		c2.407,0,4.358-1.951,4.358-4.358v-9.645h18.982c2.406,0,4.358-1.951,4.358-4.358v-28.008c0-2.406-1.952-4.358-4.358-4.358H88.694
		v-7.84l30.122-30.122h26.203c2.407,0,4.358-1.952,4.358-4.358V37.656C149.377,35.25,147.426,33.299,145.019,33.299z M70.022,9.339
		h9.955v23.96h-9.955V9.339z M46.682,126.657v-19.292h14.624v19.292H46.682z M61.306,78.483L43.51,60.687h17.796V78.483z
		 M103.318,107.365v19.292H88.694v-19.292H103.318z M88.694,78.483V60.687h17.796L88.694,78.483z M140.661,51.971H9.339v-9.956
		h131.322V51.971z"/>
</g>
<path id="XMLID_129_" display="none" fill="#EDCA3D" d="M172.29-197.244H85.718c-10.705,0-19.414,8.709-19.414,19.414v86.572
	c0,10.705,8.709,19.414,19.414,19.414h86.572c10.705,0,19.414-8.709,19.414-19.414v-86.572
	C191.704-188.535,182.995-197.244,172.29-197.244z M184.356-91.258c0,6.653-5.413,12.066-12.066,12.066H85.718
	c-6.653,0-12.066-5.413-12.066-12.066v-86.572c0-6.653,5.413-12.066,12.066-12.066h86.572c6.653,0,12.066,5.413,12.066,12.066
	V-91.258z"/>
<g display="none">
	<path id="XMLID_121_" display="inline" fill="#EDCA3D" d="M172.29-177.569H85.718c-2.028,0-3.674,1.645-3.674,3.674v31.481
		c0,2.028,1.646,3.674,3.674,3.674h86.572c2.029,0,3.674-1.646,3.674-3.674v-31.481C175.964-175.923,174.319-177.569,172.29-177.569
		z M89.392-170.221h47.744v24.133H89.392V-170.221z M168.616-146.088h-24.134v-24.133h24.134V-146.088z"/>
	<path display="inline" fill="#EDCA3D" d="M162.445-160.768h-3.282v-3.283c0-1.118-0.909-2.027-2.027-2.027h-1.174
		c-1.117,0-2.026,0.909-2.026,2.027v3.283h-3.282c-1.118,0-2.027,0.909-2.027,2.026v1.174c0,1.117,0.909,2.026,2.027,2.026h3.282
		v3.283c0,1.118,0.909,2.027,2.026,2.027h1.174c1.118,0,2.027-0.909,2.027-2.027v-3.283h3.282c1.117,0,2.026-0.909,2.026-2.026
		v-1.174C164.472-159.859,163.562-160.768,162.445-160.768z"/>
	<path display="inline" fill="#EDCA3D" d="M111.366-155.196H99.554c-1.236,0-2.238-1.002-2.238-2.238v-1.441
		c0-1.236,1.002-2.238,2.238-2.238h11.813c1.236,0,2.238,1.002,2.238,2.238v1.441C113.604-156.198,112.602-155.196,111.366-155.196z
		"/>
</g>
<g display="none">
	<path id="XMLID_1_" display="inline" fill="#EDCA3D" d="M85.718-90.74h86.572c2.028,0,3.674-1.646,3.674-3.674v-31.481
		c0-2.028-1.646-3.674-3.674-3.674H85.718c-2.029,0-3.674,1.646-3.674,3.674v31.481C82.044-92.386,83.689-90.74,85.718-90.74z
		 M168.616-98.088h-47.744v-24.133h47.744V-98.088z M89.392-122.221h24.134v24.133H89.392V-122.221z"/>
	<path display="inline" fill="#EDCA3D" d="M95.563-107.541h3.282v3.283c0,1.118,0.909,2.027,2.027,2.027h1.174
		c1.117,0,2.026-0.909,2.026-2.027v-3.283h3.282c1.118,0,2.027-0.909,2.027-2.026v-1.174c0-1.117-0.909-2.026-2.027-2.026h-3.282
		v-3.283c0-1.118-0.909-2.027-2.026-2.027h-1.174c-1.118,0-2.027,0.909-2.027,2.027v3.283h-3.282c-1.117,0-2.026,0.909-2.026,2.026
		v1.174C93.536-108.45,94.445-107.541,95.563-107.541z"/>
	<path display="inline" fill="#EDCA3D" d="M146.642-113.113h11.813c1.236,0,2.238,1.002,2.238,2.238v1.441
		c0,1.236-1.002,2.238-2.238,2.238h-11.813c-1.236,0-2.238-1.002-2.238-2.238v-1.441
		C144.404-112.111,145.406-113.113,146.642-113.113z"/>
</g>
<g display="none">
	<path id="XMLID_131_" display="inline" fill="#EDCA3D" d="M351.882-180.091c-14.901,0-26.985,12.056-26.985,26.985v70.056
		c0,10.872-8.845,19.718-19.718,19.718c-10.872,0-19.718-8.845-19.718-19.718v-8.043h4.15c2.006,0,3.634-1.626,3.634-3.633v-11.934
		h0.257c6.278,0,11.418-5.076,11.418-11.417v-42.812c0-2.006-1.628-3.634-3.634-3.634h-4.151v-11.934
		c0-2.007-1.627-3.634-3.634-3.634h-23.351c-2.006,0-3.633,1.627-3.633,3.634v11.934h-4.15c-2.007,0-3.634,1.628-3.634,3.634v42.812
		c0,6.372,5.172,11.417,11.417,11.417h0.258v11.934c0,2.007,1.627,3.633,3.634,3.633h4.15v8.043
		c0,14.88,12.106,26.985,26.986,26.985s26.985-12.105,26.985-26.985v-70.056c0-10.887,8.808-19.718,19.718-19.718
		c10.873,0,19.719,8.846,19.719,19.718v93.408c0,2.007,1.627,3.634,3.634,3.634c2.006,0,3.634-1.627,3.634-3.634v-93.408
		C378.868-167.985,366.763-180.091,351.882-180.091z M273.785-172.823h16.084v8.3h-16.084V-172.823z M266.001-118.078v-39.178
		h31.653v39.178c0,2.262-1.828,4.15-4.151,4.15h-23.351C267.89-113.927,266.001-115.756,266.001-118.078z M277.677-106.66h8.301v8.3
		h-8.301V-106.66z"/>
	<path display="inline" fill="#EDCA3D" d="M283.9-140.475l3.086-6.018c0.637-1.241,0.146-2.764-1.095-3.4l-0.696-0.357
		c-1.241-0.637-2.763-0.146-3.4,1.095l-7.004,13.656c-0.385,0.751,0.159,1.644,1.003,1.646l4.074,0.009
		c0.189,0,0.31,0.2,0.224,0.368l-2.883,5.621c-0.637,1.241-0.146,2.764,1.095,3.4l0.696,0.357c1.241,0.637,2.763,0.146,3.4-1.095
		l6.724-13.111c0.377-0.735-0.136-1.613-0.961-1.645l-4.049-0.159C283.93-140.114,283.815-140.31,283.9-140.475z"/>
</g>
</svg>
